<?xml version="1.0" standalone="no"?><!DOCTYPE svg PUBLIC "-//W3C//DTD SVG 1.1//EN" "http://www.w3.org/Graphics/SVG/1.1/DTD/svg11.dtd"><svg t="1718614971297" class="icon" viewBox="0 0 1024 1024" version="1.1" xmlns="http://www.w3.org/2000/svg" p-id="1499" xmlns:xlink="http://www.w3.org/1999/xlink" width="200" height="200"><path d="M512 512m-512 0a512 512 0 1 0 1024 0 512 512 0 1 0-1024 0Z" fill="#EF6D8C" p-id="1500"></path><path d="M711.8592 471.5264a182.6304 182.6304 0 0 1 20.48-2.2272 382.1312 382.1312 0 0 1 6.8608 58.0608c-2.048 0.384-16.512 3.712-16.512 3.712-1.1008-7.68-10.5728-54.7328-10.752-59.5456m27.8272-5.376l7.68 60.288c3.8912-0.1792 19.6608-1.3056 21.1456-1.4848-2.2272-22.8096-6.1184-58.88-6.1184-58.88a58.0864 58.0864 0 0 0-22.6304 0m-15.0272 83.6608a131.6352 131.6352 0 0 1 46.7456-4.4544c6.2976 22.8096 17.92 150.8352 18.9184 156.0064-7.68 0.9216-33.28 3.1488-35.4304 3.712-1.664-9.6512-30.2336-149.1456-30.2336-155.264m127.0784-76.8a199.68 199.68 0 0 1 20.48-0.5376 472.6528 472.6528 0 0 1 0.1792 58.4448l-16.512 1.4848c-0.3584-7.424-4.4544-54.3744-4.0704-59.3664m28.0064-1.4848l1.4848 59.5456c3.8912 0 19.4816 0.9216 21.1456 0.7424-0.3584-22.8096 0-58.88 0-58.88a102.4 102.4 0 0 0-22.6304-1.4848m-23.936 79.9488a133.9392 133.9392 0 0 1 46.9504 0.9216c2.56 26.7264 2.2272 151.1936 2.56 156.3904-7.9872 0-33.28 0.3584-35.4304 0.7424-0.3584-9.6512-14.6432-151.936-14.1056-158.0544m-81.4336-153.0624c20.224 103.1424 35.6352 279.3984 36.1728 290.7136 0 0 15.9488 0.3584 33.9456 1.4848-10.5728-111.1296-23.552-288.6656-23.3728-294.4-4.4544-5.12-46.7456 2.2272-46.7456 2.2272m-44.5184 243.968c-3.8912-28.9536-107.52-61.7728-165.6576-51.2 0 0-7.2448-63.8208-10.0096-125.5936a1282.944 1282.944 0 0 1 0.1792-113.1776 439.552 439.552 0 0 0-68.4544 25.6 2678.2976 2678.2976 0 0 1 46.7456 352.4864 319.2064 319.2064 0 0 0 85.1456-7.04c53.76-10.3936 117.4272-42.8544 112.0512-81.0752m-126.5152 52.1216l-9.088-65.4848a475.1872 475.1872 0 0 1 64 23.3728 595.9936 595.9936 0 0 1-54.912 42.112m-322.56-223.0016a182.6304 182.6304 0 0 1 20.48-2.2272 383.8208 383.8208 0 0 1 6.8608 58.0608c-2.048 0.384-16.512 3.712-16.512 3.712-1.1264-7.68-10.5728-54.7328-10.752-59.5456m27.8272-5.376l7.68 60.288c3.8912-0.1792 19.6608-1.3056 21.1456-1.4848-2.4064-22.8096-6.1184-58.88-6.1184-58.88a58.0864 58.0864 0 0 0-22.6304 0m-15.0272 83.6608a131.6608 131.6608 0 0 1 46.7456-4.4544c6.2976 22.8096 17.92 150.8352 18.9184 156.0064-7.68 0.9216-33.28 3.1488-35.4304 3.712-1.664-9.6512-30.2336-149.1456-30.2336-155.264m127.0784-76.8a199.5264 199.5264 0 0 1 20.48-0.5376 473.6 473.6 0 0 1 0.1792 58.4448l-16.512 1.4848c-0.3584-7.424-4.2752-54.3744-4.0704-59.3664m28.0064-1.4848l1.4848 59.5456c3.8912 0 19.4816 0.9216 21.1456 0.7424-0.3584-22.8096 0-58.88 0-58.88a114.8672 114.8672 0 0 0-22.6304-1.4848m-23.936 79.9488a133.9392 133.9392 0 0 1 46.9504 0.9216c2.56 26.7264 2.2272 151.1936 2.56 156.3904-7.9872 0-33.28 0.3584-35.4304 0.7424-0.1792-9.6512-14.6432-151.936-14.1056-158.0544m-81.4336-153.0624c20.224 103.1424 35.6096 279.3984 36.1728 290.7136 0 0 15.9488 0.3584 33.9456 1.4848-10.5728-111.1296-23.552-288.6656-23.3728-294.6048-4.4544-4.8128-46.7456 2.4064-46.7456 2.4064m-44.5184 243.968c-3.8912-28.9536-107.52-61.7728-165.6832-51.2 0 0-7.2448-63.8208-10.0096-125.5936a1282.944 1282.944 0 0 1 0.1792-113.1776 461.2352 461.2352 0 0 0-68.4544 25.6 2676.8384 2676.8384 0 0 1 46.7456 352.4864 319.2576 319.2576 0 0 0 85.1456-7.04c53.76-10.3936 117.4272-42.8544 112.0512-81.0752m-126.5152 52.1216l-9.088-65.4848a474.5216 474.5216 0 0 1 64 23.3728 594.9952 594.9952 0 0 1-54.912 42.112" fill="#BF1E3F" p-id="1501"></path><path d="M737.4592 445.9264a182.6304 182.6304 0 0 1 20.48-2.2272 382.1312 382.1312 0 0 1 6.8608 58.0608c-2.048 0.384-16.512 3.712-16.512 3.712-1.1008-7.68-10.5728-54.7328-10.752-59.5456m27.8272-5.376l7.68 60.288c3.8912-0.1792 19.6608-1.3056 21.1456-1.4848-2.2272-22.8096-6.1184-58.88-6.1184-58.88a58.0864 58.0864 0 0 0-22.6304 0m-15.0272 83.6608a131.6352 131.6352 0 0 1 46.7456-4.4544c6.2976 22.8096 17.92 150.8352 18.9184 156.0064-7.68 0.9216-33.28 3.1488-35.4304 3.712-1.664-9.6512-30.2336-149.1456-30.2336-155.264m127.0784-76.8a199.68 199.68 0 0 1 20.48-0.5376 472.6528 472.6528 0 0 1 0.1792 58.4448l-16.512 1.4848c-0.3584-7.424-4.4544-54.3744-4.0704-59.3664m28.0064-1.4848l1.4848 59.5456c3.8912 0 19.4816 0.9216 21.1456 0.7424-0.3584-22.8096 0-58.88 0-58.88a102.4 102.4 0 0 0-22.6304-1.4848m-23.936 79.9488a133.9392 133.9392 0 0 1 46.9504 0.9216c2.56 26.7264 2.2272 151.1936 2.56 156.3904-7.9872 0-33.28 0.3584-35.4304 0.7424-0.3584-9.6512-14.6432-151.936-14.1056-158.0544m-81.4336-153.0624c20.224 103.1424 35.6352 279.3984 36.1728 290.7136 0 0 15.9488 0.3584 33.9456 1.4848-10.5728-111.1296-23.552-288.6656-23.3728-294.4-4.4544-5.12-46.7456 2.2272-46.7456 2.2272m-44.5184 243.968c-3.8912-28.9536-107.52-61.7728-165.6576-51.2 0 0-7.2448-63.8208-10.0096-125.5936a1282.944 1282.944 0 0 1 0.1792-113.1776 439.552 439.552 0 0 0-68.4544 25.6 2678.2976 2678.2976 0 0 1 46.7456 352.4864 319.2064 319.2064 0 0 0 85.1456-7.04c53.76-10.3936 117.4272-42.8544 112.0512-81.0752m-126.5152 52.1216l-9.088-65.4848a475.1872 475.1872 0 0 1 64 23.3728 595.9936 595.9936 0 0 1-54.912 42.112m-322.56-223.0016a182.6304 182.6304 0 0 1 20.48-2.2272 383.8208 383.8208 0 0 1 6.8608 58.0608c-2.048 0.384-16.512 3.712-16.512 3.712-1.1264-7.68-10.5728-54.7328-10.752-59.5456m27.8272-5.376l7.68 60.288c3.8912-0.1792 19.6608-1.3056 21.1456-1.4848-2.4064-22.8096-6.1184-58.88-6.1184-58.88a58.0864 58.0864 0 0 0-22.6304 0m-15.0272 83.6608a131.6608 131.6608 0 0 1 46.7456-4.4544c6.2976 22.8096 17.92 150.8352 18.9184 156.0064-7.68 0.9216-33.28 3.1488-35.4304 3.712-1.664-9.6512-30.2336-149.1456-30.2336-155.264m127.0784-76.8a199.5264 199.5264 0 0 1 20.48-0.5376 473.6 473.6 0 0 1 0.1792 58.4448l-16.512 1.4848c-0.3584-7.424-4.2752-54.3744-4.0704-59.3664m28.0064-1.4848l1.4848 59.5456c3.8912 0 19.4816 0.9216 21.1456 0.7424-0.3584-22.8096 0-58.88 0-58.88a114.8672 114.8672 0 0 0-22.6304-1.4848m-23.936 79.9488a133.9392 133.9392 0 0 1 46.9504 0.9216c2.56 26.7264 2.2272 151.1936 2.56 156.3904-7.9872 0-33.28 0.3584-35.4304 0.7424-0.1792-9.6512-14.6432-151.936-14.1056-158.0544m-81.4336-153.0624c20.224 103.1424 35.6096 279.3984 36.1728 290.7136 0 0 15.9488 0.3584 33.9456 1.4848-10.5728-111.1296-23.552-288.6656-23.3728-294.6048-4.4544-4.8128-46.7456 2.4064-46.7456 2.4064m-44.5184 243.968c-3.8912-28.9536-107.52-61.7728-165.6832-51.2 0 0-7.2448-63.8208-10.0096-125.5936a1282.944 1282.944 0 0 1 0.1792-113.1776 461.2352 461.2352 0 0 0-68.4544 25.6 2676.8384 2676.8384 0 0 1 46.7456 352.4864 319.2576 319.2576 0 0 0 85.1456-7.04c53.76-10.3936 117.4272-42.8544 112.0512-81.0752m-126.5152 52.1216l-9.088-65.4848a474.5216 474.5216 0 0 1 64 23.3728 594.9952 594.9952 0 0 1-54.912 42.112" fill="#FFFFFF" p-id="1502"></path></svg>